<svg width="37" height="38" viewBox="0 0 37 38" fill="none" xmlns="http://www.w3.org/2000/svg">
<path d="M12.0388 26.8436L8.75439 24.0546C6.91458 22.4922 7.79462 19.489 10.1867 19.1667L33.2733 16.0563C33.3656 16.0439 33.4568 16.0242 33.5459 15.9974C34.7945 15.6226 36.0051 16.6867 35.8018 17.9743C35.7043 18.5914 35.2892 19.114 34.7095 19.3468L14.8818 27.3058C13.9218 27.6911 12.8273 27.5132 12.0388 26.8436Z" fill="url(#paint0_linear_1377_1033)"/>
<path d="M3.11126 0.0191726L33.7772 3.59967C35.1822 3.76372 36.2417 4.95408 36.2417 6.36867V16.7861C36.2417 18.471 34.7585 19.7709 33.0882 19.5498L2.42225 15.4919C1.03602 15.3085 0.000144958 14.1265 0.000144958 12.7282V2.78817C0.000144958 1.12039 1.45473 -0.174241 3.11126 0.0191726Z" fill="#4465D6"/>
<path d="M10.7028 19.1665L34.2 22.1202C35.5943 22.2955 36.6401 23.481 36.6401 24.8862V34.5738C36.6401 36.3046 35.0795 37.6171 33.3743 37.3203L9.87701 33.2305C8.54185 32.9981 7.56724 31.8392 7.56724 30.484V21.9325C7.56724 20.2549 9.03822 18.9572 10.7028 19.1665Z" fill="#4465D6"/>
<defs>
<linearGradient id="paint0_linear_1377_1033" x1="13.3208" y1="21.1354" x2="31.7163" y2="16.0455" gradientUnits="userSpaceOnUse">
<stop stop-color="#123AC4"/>
<stop offset="1" stop-color="#2048D1"/>
</linearGradient>
</defs>
</svg>
