<svg width="34" height="34" viewBox="0 0 34 34" fill="none" xmlns="http://www.w3.org/2000/svg">
<path d="M1.9294 15.3888C2.81678 9.10882 8.19162 4.44006 14.5339 4.44006L19.2698 4.44006C25.5608 4.44006 30.9083 9.0354 31.8547 15.2547L32.4359 19.0737C33.6083 26.7784 27.6445 33.7185 19.851 33.7185H13.9943C6.25543 33.7185 0.306985 26.8704 1.38977 19.2077L1.9294 15.3888Z" fill="url(#paint0_linear_1376_552)"/>
<path d="M17.1609 4.44029C16.5243 3.48556 12.3217 2.54912 13.6601 1.25782C15.2527 -0.278771 16.5572 2.63274 17.1609 4.44029Z" fill="#1F1F1F"/>
<path d="M17.1614 4.40739C18.1156 2.53073 24.4169 3.99939 20.9798 0.939463C19.3269 -0.532095 17.7651 2.59985 17.1614 4.40739Z" fill="#1F1F1F"/>
<path d="M15.2515 17.8063C15.2515 18.8609 14.6816 19.7158 13.9785 19.7158C13.2755 19.7158 12.7056 18.8609 12.7056 17.8063C12.7056 16.7517 13.2755 15.8969 13.9785 15.8969C14.6816 15.8969 15.2515 16.7517 15.2515 17.8063Z" fill="white"/>
<path d="M20.9795 17.8063C20.9795 18.8609 20.4096 19.7158 19.7066 19.7158C19.0035 19.7158 18.4336 18.8609 18.4336 17.8063C18.4336 16.7517 19.0035 15.8969 19.7066 15.8969C20.4096 15.8969 20.9795 16.7517 20.9795 17.8063Z" fill="white"/>
<path d="M16.1494 17.8501C16.1494 19.4149 15.4914 20.6834 14.0244 20.6834C12.5574 20.6834 11.8994 19.4148 11.8994 17.85C11.8994 16.2852 12.5574 15.0167 14.0244 15.0167C15.4914 15.0167 16.1494 16.2853 16.1494 17.8501Z" fill="white"/>
<path d="M22.1001 17.8501C22.1001 19.4149 21.4421 20.6834 19.9751 20.6834C18.5081 20.6834 17.8501 19.4148 17.8501 17.85C17.8501 16.2852 18.5081 15.0167 19.9751 15.0167C21.4421 15.0167 22.1001 16.2853 22.1001 17.8501Z" fill="white"/>
<defs>
<linearGradient id="paint0_linear_1376_552" x1="23.2076" y1="26.0807" x2="25.4353" y2="33.7185" gradientUnits="userSpaceOnUse">
<stop stop-color="#CA1016"/>
<stop offset="0.951178" stop-color="#A90D13" stop-opacity="0.94"/>
</linearGradient>
</defs>
</svg>
