<svg fill="none" height="344" viewBox="0 0 280 344" width="280" xmlns="http://www.w3.org/2000/svg" xmlns:xlink="http://www.w3.org/1999/xlink"><clipPath id="a"><path d="m256 64h24v24h-24z"/></clipPath><path d="m10.5874 4.1416c.864 2.08179 2.4782 3.75087 4.5156 4.65528l2.3067 1.02343-2.3828 1.05859c-1.9864.8818-3.5721 2.4924-4.4512 4.5059l-.83302 1.9072-.83301-1.9072c-.87915-2.0136-2.46473-3.6241-4.45117-4.5059l-2.38379-1.05859 2.30859-1.02343c2.03728-.9044 3.65063-2.57362 4.51465-4.65528l.84473-2.03613z" stroke="#000" stroke-width="2"/><path d="m18.9341 16.7354c.5183.9981 1.3318 1.811 2.332 2.3173-.9915.4908-1.8044 1.2812-2.332 2.2569-.5278-.9757-1.3404-1.7662-2.332-2.2569 1.0004-.5062 1.8136-1.3192 2.332-2.3173z" stroke="#000" stroke-width="2"/><g fill="#000"><path d="m84.7134 8.12811-.2466.56568c-.1804.41413-.7532.41413-.9337 0l-.2465-.56568c-.4395-1.00864-1.2311-1.8117-2.2189-2.25103l-.7597-.33786c-.4107-.18269-.4107-.78041 0-.9631l.7172-.31898c1.0132-.45063 1.819-1.28341 2.2509-2.32631l.2532-.6113c.1765-.42604.7649-.42604.9413 0l.2532.6113c.432 1.0429 1.2378 1.87568 2.251 2.32631l.7171.31898c.4108.18269.4108.78041 0 .9631l-.7596.33786c-.9878.43933-1.7794 1.24239-2.2189 2.25103zm-10.7134-5.12811h4v2h-4c-3.3137 0-6 2.68629-6 6 0 3.61 2.4621 5.9656 8 8.4798v-2.4798h2c3.3137 0 6-2.6863 6-6h2c0 4.4183-3.5817 8-8 8v3.5c-5-2-12-5-12-11.5 0-4.41828 3.5817-8 8-8z"/><path d="m148.713 8.12811-.246.56568c-.181.41413-.753.41413-.934 0l-.246-.56568c-.44-1.00864-1.232-1.8117-2.219-2.25103l-.76-.33786c-.411-.18269-.411-.78041 0-.9631l.717-.31898c1.013-.45063 1.819-1.28341 2.251-2.32631l.253-.6113c.177-.42604.765-.42604.942 0l.253.6113c.432 1.0429 1.238 1.87568 2.251 2.32631l.717.31898c.411.18269.411.78041 0 .9631l-.76.33786c-.987.43933-1.779 1.24239-2.219 2.25103zm-8.713-6.12811c-5.523 0-10 4.47715-10 10 0 1.7025.425 3.3056 1.176 4.7088l-1.176 5.2912 5.291-1.1758c1.403.7504 3.007 1.1758 4.709 1.1758 5.523 0 10-4.4772 10-10 0-.4025-.024-.7998-.07-1.1906l-1.986.2358c.037.3127.056.6313.056.9548 0 4.4183-3.582 8-8 8-1.334 0-2.618-.3255-3.766-.9395l-.653-.3495-2.947.6548.655-2.9466-.35-.6535c-.614-1.1482-.939-2.4312-.939-3.7657 0-4.41828 3.582-8 8-8 .692 0 1.362.0876 2 .25179l.498-1.93692c-.799-.20573-1.637-.31487-2.498-.31487zm-3 10h-2c0 2.7614 2.239 5 5 5s5-2.2386 5-5h-2c0 1.6569-1.343 3-3 3s-3-1.3431-3-3z"/><path d="m196.713 7.12811-.246.56568c-.181.41413-.753.41413-.934 0l-.246-.56568c-.44-1.00864-1.232-1.8117-2.219-2.25103l-.76-.33786c-.411-.18269-.411-.78041 0-.9631l.717-.31898c1.013-.45063 1.819-1.28341 2.251-2.326312l.253-.611294c.177-.426045.765-.426045.942 0l.253.611294c.432 1.042902 1.238 1.875682 2.251 2.326312l.717.31898c.411.18269.411.78041 0 .9631l-.76.33786c-.987.43933-1.779 1.24239-2.219 2.25103zm1.621 8.68729c.176-.5824.373-1.1592.605-1.7827 2.056-5.52634 5.481-8.95098 11.074-9.81791-.513 1.14359-.998 1.93822-1.427 2.36758-.334.33366-.668.66756-1.001 1.0017l-1.413 1.41471 1.456 1.45472c-1.13 2.0849-3.363 3.7444-5.876 4.0585-1.317.1646-2.459.6068-3.418 1.3034zm11.666-5.81882-1-.9993c.333-.33356.666-.66689 1.003-1.00337.999-1.00088 1.998-2.99999 2.997-5.99733-14.689 0-16.911 13.42542-17.936 19.61662-.022.1311-.043.259-.064.3834h1.998c.666-3.3331 2.333-5.1665 5.002-5.5 4-.5 7-3.5 8-6.50002z"/><path d="m276.713 7.12811-.246.56568c-.181.41413-.753.41413-.934 0l-.246-.56568c-.44-1.00864-1.232-1.8117-2.219-2.25103l-.76-.33786c-.411-.18269-.411-.78041 0-.9631l.717-.31898c1.013-.45063 1.819-1.28341 2.251-2.326312l.253-.611294c.177-.426045.765-.426045.942 0l.253.611294c.432 1.042902 1.238 1.875682 2.251 2.326312l.717.31898c.411.18269.411.78041 0 .9631l-.76.33786c-.987.43933-1.779 1.24239-2.219 2.25103zm-13.713-1.12811c0-2.76142 2.239-5 5-5 .991 0 1.918.28957 2.697.7891l-1.08 1.68338c-.466-.29899-1.02-.47248-1.617-.47248-1.657 0-3 1.34315-3 3v6c0 1.6569 1.343 3 3 3s3-1.3431 3-3v-5h2v5c0 2.7614-2.239 5-5 5s-5-2.2386-5-5zm-4.808 7.9617 1.962-.3924c.729 3.6669 3.965 6.4308 7.846 6.4308s7.117-2.7638 7.846-6.4308l1.962.3924c-.912 4.5836-4.956 8.0384-9.808 8.0384-4.851 0-8.896-3.4548-9.808-8.0384z"/><path d="m18.7134 72.1281-.2466.5657c-.1804.4141-.7532.4141-.9337 0l-.2465-.5657c-.4395-1.0086-1.2311-1.8117-2.2189-2.251l-.7597-.3379c-.4107-.1827-.4107-.7804 0-.9631l.7172-.319c1.0132-.4506 1.819-1.2834 2.2509-2.3263l.2532-.6113c.1765-.426.7649-.426.9413 0l.2532.6113c.432 1.0429 1.2378 1.8757 2.251 2.3263l.7171.319c.4108.1827.4108.7804 0 .9631l-.7596.3379c-.9878.4393-1.7794 1.2424-2.2189 2.251zm-11.7134-5.1281h5v2h-3v12c0 2.2091-1.79086 4-4 4s-4-1.7909-4-4 1.79086-4 4-4c.72857 0 1.41165.1948 2 .5351zm11 10.5351v-2.5351h2v6c0 2.2091-1.7909 4-4 4s-4-1.7909-4-4 1.7909-4 4-4c.7286 0 1.4117.1948 2 .5351zm-13 5.4649c1.10457 0 2-.8954 2-2s-.89543-2-2-2-2 .8954-2 2 .89543 2 2 2zm11 0c1.1046 0 2-.8954 2-2s-.8954-2-2-2-2 .8954-2 2 .8954 2 2 2z"/><path d="m82.7134 72.1281-.2466.5657c-.1804.4141-.7532.4141-.9337 0l-.2465-.5657c-.4395-1.0086-1.2311-1.8117-2.2189-2.251l-.7597-.3379c-.4107-.1827-.4107-.7804 0-.9631l.7172-.319c1.0132-.4506 1.819-1.2834 2.2509-2.3263l.2532-.6113c.1765-.426.7649-.426.9413 0l.2532.6113c.432 1.0429 1.2378 1.8757 2.251 2.3263l.7171.319c.4108.1827.4108.7804 0 .9631l-.7596.3379c-.9878.4393-1.7794 1.2424-2.2189 2.251zm-11.7134-5.1281h5v3h-3v11c0 2.2091-1.7909 4-4 4s-4-1.7909-4-4 1.7909-4 4-4c.7286 0 1.4117.1948 2 .5351zm11 10.5351v-2.5351h2v6c0 2.2091-1.7909 4-4 4s-4-1.7909-4-4 1.7909-4 4-4c.7286 0 1.4117.1948 2 .5351z"/><path d="m144 68c.552 0 1 .4478 1 1v4.2002l5.213-3.6494c.226-.1583.538-.1031.696.1231.059.0839.091.1836.091.2861v12.0801c0 .276-.224.5-.5.5-.103 0-.203-.032-.287-.0908l-5.213-3.6494v4.2001c0 .5523-.448 1-1 1h-14c-.552 0-1-.4477-1-1v-7h2v6h12v-12h-5v-2zm1 7.6416v.7168l4 2.7998v-6.3164zm-13.471-9.3222c.177-.4259.765-.4259.942 0l.253.6113c.432 1.0428 1.238 1.8755 2.251 2.3262l.716.3193c.411.1827.411.7802 0 .9629l-.758.3379c-.988.4393-1.78 1.2425-2.219 2.251l-.247.5654c-.181.4141-.753.4141-.934 0l-.247-.5654c-.439-1.0085-1.231-1.8117-2.219-2.251l-.759-.3379c-.411-.1828-.411-.7801 0-.9629l.717-.3193c1.013-.4507 1.819-1.2834 2.251-2.3262z"/><path d="m196.713 71.1281-.246.5657c-.181.4141-.753.4141-.934 0l-.246-.5657c-.44-1.0086-1.232-1.8117-2.219-2.251l-.76-.3379c-.411-.1827-.411-.7804 0-.9631l.717-.319c1.013-.4506 1.819-1.2834 2.251-2.3263l.253-.6113c.177-.426.765-.426.942 0l.253.6113c.432 1.0429 1.238 1.8757 2.251 2.3263l.717.319c.411.1827.411.7804 0 .9631l-.76.3379c-.987.4393-1.779 1.2424-2.219 2.251zm10.601 2.4048.143.142c1.294 1.3431 1.874 3.3119 1.356 5.2452-.649 2.4192-2.843 4.0783-5.311 4.0783-2.036 0-4.714-.6258-6.973-1.5143 1.205-1.4145 1.645-2.8091 1.799-4.6791.038-.4514.061-.6309.104-.7908.793-2.9616 3.585-4.6091 6.492-3.8302.931.2496 1.742.7238 2.39 1.3489zm2.914-7.1616-4.939 3.8416c-3.947-.9737-7.731 1.3336-8.789 5.2837-.102.3797-.134.7654-.167 1.1694-.115 1.3939-.247 3.0047-3.333 5.3306 2.5 1.5 7 3.0018 10.502 3.0018 3.312 0 6.344-2.2088 7.242-5.5607.34-1.2658.334-2.5427.041-3.731l3.84-4.9379c.31-.3981.275-.9645-.082-1.3211l-2.994-2.9942c-.357-.3566-.923-.3918-1.321-.0822zm-1.333 5.9139c-.063-.0657-.128-.1303-.194-.1937l-1.124-1.1247 3.182-2.4748 1.746 1.7457-2.475 3.182z"/></g><g clip-path="url(#a)"><path d="m262.007 71.2973c-.005-.0985-.007-.1976-.007-.2973 0-3.3137 2.686-6 6-6 1.35 0 2.598.4468 3.601 1.2001l-1.202 1.5991c-.668-.5021-1.497-.7992-2.399-.7992-.276 0-.546.028-.806.0813-1.823.373-3.194 1.9857-3.194 3.9187 0 2.0331 1.517 3.7119 3.481 3.9666 1.023-1.4081 2.574-2.2578 4.215-2.4335.684-.0733 1.383-.0293 2.068.1394.537.1323 1.064.3415 1.566.6314 2.87 1.6569 3.853 5.3264 2.196 8.1961-1.657 2.8698-5.326 3.8531-8.196 2.1962-.502-.2898-.947-.6419-1.33-1.0408-.383.3989-.828.751-1.33 1.0409-2.87 1.6568-6.539.6736-8.196-2.1962-1.657-2.8697-.674-6.5393 2.196-8.1961.502-.2898 1.029-.4991 1.566-.6314-.123-.4261-.201-.8718-.226-1.3313zm1.143 3.2355c-.506.0661-1.009.231-1.48.5032-1.913 1.1046-2.569 3.551-1.464 5.4641 1.104 1.9132 3.551 2.5687 5.464 1.4641.632-.3649 1.125-.8742 1.464-1.4618.609-1.0567.719-2.3633.231-3.5355-.384-.0405-.758-.1172-1.117-.2267-.045-.0138-.09-.0282-.135-.043-1.201-.3975-2.233-1.1637-2.963-2.1644zm6.004 6.4015c.311.4053.705.7577 1.176 1.0299 1.913 1.1045 4.36.449 5.464-1.4642.5-.865.639-1.8391.465-2.7489-.21-1.1023-.881-2.1102-1.929-2.7154-.632-.3649-1.32-.5371-1.998-.5367-1.219.0008-2.406.5586-3.177 1.5676.111.2499.204.5041.279.7611.043.1508.081.3025.113.4548.013.0653.026.1306.037.1961.203 1.1781.046 2.3825-.43 3.4557zm5.423-9.9343c.289.334.529.7137.71 1.1281l.246.5657c.181.4141.753.4141.934 0l.246-.5657c.44-1.0086 1.232-1.8117 2.219-2.251l.76-.3379c.411-.1827.411-.7804 0-.9631l-.717-.319c-1.013-.4506-1.819-1.2834-2.251-2.3263l-.253-.6113c-.177-.426-.765-.426-.942 0l-.253.6113c-.079.1924-.172.3776-.276.5546-.46.7825-1.148 1.4042-1.975 1.7717l-.717.319c-.411.1827-.411.7804 0 .9631l.76.3379c.582.2588 1.096.6439 1.509 1.1229z" fill="#000"/></g><path d="m9 132c1.1046 0 2 .895 2 2v6.827c-.8942-.69-2.03398-1.096-3.3356-1.313l-.3288 1.972c1.38062.23 2.26183.667 2.8046 1.255.5298.574.8598 1.426.8598 2.759 0 1.381-1.11929 2.5-2.5 2.5s-2.5-1.119-2.5-2.5v-.351c.43007.144.87634.261 1.3356.337l.3288-1.972c-.74291-.124-1.4892-.4-2.23531-.754-.84752-.403-1.42909-1.261-1.42909-2.26 0-.835.20761-1.492.55874-1.974.34567-.476.88316-.856 1.6838-1.056l.75746-.189v-3.281c0-1.105.89543-2 2-2zm3-.646c-.7329-.83-1.8053-1.354-3-1.354-2.20914 0-4 1.791-4 4v1.774c-.85105.342-1.54857.874-2.05874 1.575-.64887.892-.94126 1.986-.94126 3.151 0 1.565.79565 2.937 2 3.742v1.258c0 2.485 2.01472 4.5 4.5 4.5 1.41363 0 2.675-.652 3.5-1.671.825 1.019 2.0864 1.671 3.5 1.671 2.4853 0 4.5-2.015 4.5-4.5v-1.258c1.2044-.805 2-2.177 2-3.742 0-1.165-.2924-2.259-.9413-3.151-.5101-.701-1.2076-1.233-2.0587-1.575v-1.774c0-2.209-1.7909-4-4-4-1.1947 0-2.2671.524-3 1.354zm6 13.795v.351c0 1.381-1.1193 2.5-2.5 2.5s-2.5-1.119-2.5-2.5c0-1.333.33-2.185.8598-2.759.5428-.588 1.424-1.025 2.8046-1.255l-.3288-1.972c-1.3016.217-2.4414.623-3.3356 1.313v-6.827c0-1.105.8954-2 2-2s2 .895 2 2v3.281l.7575.189c.8006.2 1.3381.58 1.6838 1.056.3511.482.5587 1.139.5587 1.974 0 .999-.5816 1.857-1.4291 2.26-.7461.354-1.4924.63-2.2353.754l.3288 1.972c.4593-.076.9055-.193 1.3356-.337z" fill="#000"/><path d="m72.6626 142.484c0-.553.4481-1.002 1.0012-1.002.5528 0 1.0011.449 1.0011 1.002v1.997c0 .553-.4481 1.001-1.0011 1.001-.5531 0-1.0012-.448-1.0012-1.001z" fill="#000"/><path d="m79.3373 142.484c0-.553-.4481-1.002-1.0012-1.002-.5533 0-1.0011.449-1.0011 1.002v1.997c0 .553.4481 1.001 1.0011 1.001.5531 0 1.0012-.448 1.0012-1.001z" fill="#000"/><path d="m83.0001 138.5.5 1c1 .5 2.15 1.5 2.15 2.501v1.699c0 2.8-6.65 4.8-9.65 4.8s-9.65-2-9.65-4.8v-1.699c0-1.001 1.15-2.001 2.15-2.501l.5-1m11 .651c-2.7488 0-3.6999-2.151-3.6999-4.751 0-1.9 1.0999-2.599 3.1288-2.599 1.9711 0 4.1711.599 4.1711 4 0 2.7-1.1 3.35-3.6 3.35zm-4.3-4.751c0 2.6-.9511 4.751-3.7 4.751-2.5 0-3.6-.65-3.6-3.35 0-3.401 2.2-4 4.1712-4 2.0288 0 3.1288.699 3.1288 2.599z" stroke="#000" stroke-linecap="round" stroke-width="2"/><path d="m135.05 134.367c-1.339.042-2.626.754-3.344 1.999-.997 1.727-.56 3.888.941 5.105m2.403-7.104c.303-1.908 1.956-3.367 3.95-3.367 1.437 0 2.698.758 3.403 1.897m-7.353 1.47c-.288 1.809-.05 3.809-.05 5.633m7.403-7.103c1.804-.692 3.894.01 4.891 1.737.719 1.245.692 2.716.059 3.895m-4.95-5.632c-1.718.658-3.315 1.856-4.903 2.773m9.853 2.859c1.501 1.217 1.938 3.378.941 5.105-.719 1.245-2.005 1.957-3.344 1.999m2.403-7.104c-1.429-1.158-3.265-1.942-4.853-2.859m2.45 9.963c-.303 1.908-1.956 3.367-3.95 3.367-1.437 0-2.698-.758-3.403-1.897m7.353-1.47c.288-1.809.05-3.809.05-5.633m-7.403 7.103c-1.804.692-3.894-.01-4.891-1.737-.719-1.245-.692-2.716-.059-3.895m4.95 5.632c1.71-.655 3.324-1.861 4.903-2.773m-9.853-2.859c1.422 1.153 3.274 1.947 4.853 2.859" stroke="#000" stroke-width="2"/><path d="m212.713 136.128-.246.566c-.181.414-.753.414-.934 0l-.246-.566c-.44-1.009-1.232-1.812-2.219-2.251l-.76-.338c-.411-.182-.411-.78 0-.963l.717-.319c1.013-.45 1.819-1.283 2.251-2.326l.253-.611c.177-.427.765-.427.942 0l.253.611c.432 1.043 1.238 1.876 2.251 2.326l.717.319c.411.183.411.781 0 .963l-.76.338c-.987.439-1.779 1.242-2.219 2.251zm-11.713-5.128h5v2h-4.172l-2 2h-3.828v12h16v-8h2v9c0 .552-.448 1-1 1h-18c-.552 0-1-.448-1-1v-14c0-.552.448-1 1-1h4zm3 15c-3.038 0-5.5-2.462-5.5-5.5s2.462-5.5 5.5-5.5 5.5 2.462 5.5 5.5-2.462 5.5-5.5 5.5zm0-2c1.933 0 3.5-1.567 3.5-3.5s-1.567-3.5-3.5-3.5-3.5 1.567-3.5 3.5 1.567 3.5 3.5 3.5z" fill="#000"/><path d="m276.467 136.694.246-.566c.44-1.009 1.232-1.812 2.219-2.251l.76-.338c.411-.182.411-.78 0-.963l-.717-.319c-1.013-.45-1.819-1.283-2.251-2.326l-.253-.611c-.177-.427-.765-.427-.942 0l-.253.611c-.432 1.043-1.238 1.876-2.251 2.326l-.717.319c-.411.183-.411.781 0 .963l.76.338c.987.439 1.779 1.242 2.219 2.251l.246.566c.181.414.753.414.934 0zm-8.467-4.694c-4.418 0-8 3.582-8 8 0 2.464 1.114 4.667 2.865 6.135l7.427-7.428c.391-.391 1.024-.391 1.415 0l3.869 3.869c.001-.003.002-.007.004-.01.272-.806.42-1.669.42-2.566 0-.323-.019-.642-.056-.955l1.986-.236c.046.391.07.789.07 1.191 0 5.523-4.477 10-10 10s-10-4.477-10-10 4.477-10 10-10c.861 0 1.699.109 2.498.315l-.498 1.937c-.638-.164-1.308-.252-2-.252zm-1.187 15.913c.387.057.783.087 1.187.087 2.761 0 5.199-1.4 6.638-3.533l-3.638-3.639-6.411 6.411.004.002c.692.325 1.437.555 2.22.672zm.187-9.913c0 1.105-.895 2-2 2s-2-.895-2-2 .895-2 2-2 2 .895 2 2z" fill="#000"/><path d="m6.2134 200.628-.24658.566c-.18045.414-.75325.414-.9337 0l-.24656-.566c-.4395-1.009-1.23111-1.812-2.21889-2.251l-.75962-.338c-.41073-.182-.41073-.78 0-.963l.71715-.319c1.01318-.45 1.81897-1.283 2.25092-2.326l.2532-.611c.17646-.427.76485-.427.94131 0l.25319.611c.43195 1.043 1.23776 1.876 2.25098 2.326l.71708.319c.41083.183.41083.781 0 .963l-.7596.338c-.98777.439-1.7794 1.242-2.21888 2.251zm8.7866-2.628-3.7297 6.216-2.2703-4.216-7 13h21zm-.0127 13-2.5976-4.762 2.5079-4.18 4.7691 8.942zm-2.3357 0h-7.30317l3.65157-6.781z" fill="#000"/><path d="m76 194c.3778 0 .7504.022 1.1172.063l.001-.001c.015.002.0299.005.0449.006.1563.019.3117.039.4658.065.0317.005.0631.012.0947.017.1262.022.2515.047.376.074.0484.01.0964.022.1445.033.1171.027.2333.056.3487.087.0417.011.0834.022.125.034.151.043.3011.087.4492.137l-3.167 5.485h4.7754l1.1543 2h-2.4658l3.4629 5.999c.6808-1.177 1.0732-2.542 1.0732-3.999 0-.323-.0215-.64-.0586-.953l.002-.001 1.9834-.236c.0463.39.0732.787.0732 1.19 0 5.523-4.4772 10-10 10s-10-4.477-10-10 4.4772-10 10-10zm0 18c2.1831 0 4.161-.875 5.6045-2.293l-2.1406-3.708zm-6.9268-4c1.0369 1.792 2.7471 3.143 4.7862 3.708l2.1406-3.708zm-.0009-8c-.681 1.177-1.0723 2.542-1.0723 4 0 .691.0874 1.361.252 2h4.2841zm4.6181 4 1.1543 2h2.3106l1.1543-2.001-1.1543-1.999h-2.3096zm2.3096-8c-2.1831 0-4.162.874-5.6055 2.292l2.1407 3.708zm7.5293-2.681c.1765-.425.7649-.426.9414 0l.2529.612c.4319 1.042 1.2379 1.875 2.251 2.326l.7168.319c.4108.183.4108.78 0 .963l-.7588.338c-.9876.439-1.7792 1.242-2.2187 2.251l-.2471.565c-.1805.414-.7532.414-.9336 0l-.2471-.565c-.4395-1.009-1.231-1.812-2.2187-2.251l-.7598-.338c-.4102-.183-.4102-.78 0-.963l.7178-.319c1.013-.451 1.8191-1.284 2.251-2.326z" fill="#000"/><path d="m135.2 196h-3.2v16h3.2v-3.2-3.2h3.2v3.2h3.2v-3.2h3.2v3.2 3.2h3.2v-16h-3.2v3.2h-3.2v3.2h-3.2v-3.2h-3.2z" stroke="#000" stroke-width="2"/><path d="m205 196.055c4.5.497 8 4.312 8 8.945v9h-18v-9c0-4.633 3.5-8.448 8-8.945v-3.055h2zm6 15.945v-7c0-3.866-3.134-7-7-7s-7 3.134-7 7v7zm-7-2c-2.761 0-5-2.239-5-5s2.239-5 5-5 5 2.239 5 5-2.239 5-5 5zm0-2c1.657 0 3-1.343 3-3s-1.343-3-3-3-3 1.343-3 3 1.343 3 3 3zm0-2c-.552 0-1-.448-1-1s.448-1 1-1 1 .448 1 1-.448 1-1 1z" fill="#000"/><path d="m269.5 194c0 .444-.193.843-.5 1.118v1.882h5c1.657 0 3 1.343 3 3v10c0 1.657-1.343 3-3 3h-12c-1.657 0-3-1.343-3-3v-10c0-1.657 1.343-3 3-3h5v-1.882c-.307-.275-.5-.674-.5-1.118 0-.828.672-1.5 1.5-1.5s1.5.672 1.5 1.5zm-7.5 5c-.552 0-1 .448-1 1v10c0 .552.448 1 1 1h12c.552 0 1-.448 1-1v-10c0-.552-.448-1-1-1h-5-2zm-4 3h-2v6h2zm20 0h2v6h-2zm-13 4.5c.828 0 1.5-.672 1.5-1.5s-.672-1.5-1.5-1.5-1.5.672-1.5 1.5.672 1.5 1.5 1.5zm6 0c.828 0 1.5-.672 1.5-1.5s-.672-1.5-1.5-1.5-1.5.672-1.5 1.5.672 1.5 1.5 1.5z" fill="#000"/><path d="m19.7134 264.128-.2466.566c-.1804.414-.7532.414-.9337 0l-.2465-.566c-.4395-1.009-1.2311-1.812-2.2189-2.251l-.7597-.338c-.4107-.182-.4107-.78 0-.963l.7172-.319c1.0132-.45 1.819-1.283 2.2509-2.326l.2532-.611c.1765-.427.7649-.427.9413 0l.2532.611c.432 1.043 1.2378 1.876 2.251 2.326l.7171.319c.4108.183.4108.781 0 .963l-.7596.338c-.9878.439-1.7794 1.242-2.2189 2.251zm-14.7134 8.872v-2h-2v2c0 2.209 1.79086 4 4 4h3v-2h-3l-.14926-.006c-1.03486-.076-1.85074-.94-1.85074-1.994zm17.4 4-4.4-11h-2l-4.399 11h2.154l1.199-3h4.09l1.201 3zm-6.647-5 1.247-3.115 1.245 3.115zm-7.753-12v-2h-2v2h-4v7h4v3h2v-3h4v-7zm-4 2h2v3h-2zm4 0h2v3h-2z" fill="#000"/><path d="m83.7134 264.128-.2466.566c-.1804.414-.7532.414-.9337 0l-.2465-.566c-.4395-1.009-1.2311-1.812-2.2189-2.251l-.7597-.338c-.4107-.182-.4107-.78 0-.963l.7172-.319c1.0132-.45 1.819-1.283 2.2509-2.326l.2532-.611c.1765-.427.7649-.427.9413 0l.2532.611c.432 1.043 1.2378 1.876 2.251 2.326l.7171.319c.4108.183.4108.781 0 .963l-.7596.338c-.9878.439-1.7794 1.242-2.2189 2.251zm3.1866 12.872-4.4-11h-2l-4.399 11h2.154l1.199-3h4.09l1.201 3zm-6.647-5 1.247-3.115 1.245 3.115zm-8.7064-3.696c-1.1325-1.287-2.0867-2.734-2.8239-4.304h2.2406c.5678 1.044 1.2468 2.02 2.0211 2.91 1.2893-1.422 2.3183-3.083 3.0117-4.91h-9.9961v-2h6v-2h2v2h4.6497c-.0873.43-.1903.854-.3085 1.272-.755 2.67-2.127 5.079-3.9522 7.066.7199.647 1.4979 1.231 2.3252 1.743l-.7527 1.882c-1.0801-.64-2.0885-1.388-3.0103-2.229-1.7734 1.535-3.8587 2.721-6.1485 3.448l-.6054-1.906c1.9863-.631 3.7994-1.652 5.3493-2.972z" fill="#000"/><path d="m148.5 263.076v9.847l-8.5 4.922-8.5-4.922v-9.847l8.5-4.921z" stroke="#000" stroke-width="2"/><path d="m140 277.501v-9.5l-8-4.632v9.632z" fill="#000"/><path d="m201 268.5-2.5 2.5 2.5 2.5 2.5-2.5z" fill="#000"/><path d="m207 258.5c-3.428 0-6.236 2.653-6.482 6.018-3.365.246-6.018 3.054-6.018 6.482 0 3.59 2.91 6.5 6.5 6.5 3.428 0 6.236-2.653 6.482-6.018 3.365-.246 6.018-3.054 6.018-6.482 0-3.59-2.91-6.5-6.5-6.5zm.323 10.989c-.565-2.376-2.436-4.247-4.812-4.812.166-2.335 2.112-4.177 4.489-4.177 2.485 0 4.5 2.015 4.5 4.5 0 2.377-1.842 4.323-4.177 4.489zm-1.823 1.511c0 2.485-2.015 4.5-4.5 4.5s-4.5-2.015-4.5-4.5 2.015-4.5 4.5-4.5 4.5 2.015 4.5 4.5z" fill="#000"/><path d="m195 263c0-2.209 1.791-4 4-4h1.5v2h-1.5c-1.105 0-2 .895-2 2v1.5h-2z" fill="#000"/><path d="m211 273v-1.5h2v1.5c0 2.209-1.791 4-4 4h-1.5v-2h1.5c1.105 0 2-.895 2-2z" fill="#000"/><path d="m273 277h-10c-2.925.001-5.426-2.107-5.918-4.99-.493-2.884 1.166-5.702 3.926-6.672-.123-2.577 1.182-5.014 3.396-6.34s4.978-1.326 7.192 0 3.519 3.763 3.396 6.34c2.76.97 4.419 3.788 3.926 6.672-.493 2.883-2.993 4.991-5.918 4.99zm0-12.001c.001-1.815-.983-3.489-2.57-4.371-1.587-.883-3.527-.835-5.07.123-1.542.959-2.443 2.678-2.354 4.491l.07 1.488-1.404.494c-1.836.65-2.939 2.527-2.611 4.447s1.991 3.325 3.939 3.328h10c2.043 0 3.757-1.541 3.976-3.572.218-2.032-1.13-3.901-3.126-4.336-1.997-.435-4 .705-4.646 2.643l-1.898-.633c.818-2.449 3.111-4.101 5.694-4.102z" fill="#000"/><path d="m12 343c0-6.075-4.92487-11-11-11 6.07513 0 11-4.925 11-11 0 6.075 4.9249 11 11 11-6.0751 0-11 4.925-11 11z" stroke="#000" stroke-width="2"/><path d="m70 335c.5.5 1.775 1.218 2.5 1.457m9.5-1.457c-.5.5-1.775 1.218-2.5 1.457m-7 0-1.1079 2.704c-1.5661-.48-3.16-1.21-4.8115-2.41-.336-3.534.3361-7.115 2.8229-10.783 1.23-.567 2.5454-.98 3.9281-1.21.1632.298.3648.701.4993 1.018 1.4402-.211 2.8901-.211 4.3505 0 .1345-.317.3265-.72.4993-1.018 1.3731.23 2.6885.643 3.9272 1.21 2.1507 3.14 3.2174 6.692 2.8046 10.783-1.6428 1.2-3.2463 1.93-4.8114 2.41l-1.1011-2.704m-7 0c2.1883.724 4.8117.724 7 0" stroke="#000" stroke-width="1.80952"/><path d="m70.6309 331.744c0 1.157.849 2.101 1.889 2.101 1.0506 0 1.889-.944 1.889-2.101.0212-1.157-.8384-2.101-1.889-2.101-1.0613 0-1.889.944-1.889 2.101z" fill="#000"/><path d="m77.6032 331.744c0 1.157.8501 2.101 1.8902 2.101 1.0612 0 1.8889-.944 1.8889-2.101.0213-1.157-.8383-2.101-1.8889-2.101-1.0613 0-1.8902.944-1.8902 2.101z" fill="#000"/><path d="m131 341h9c4.971 0 9-4.029 9-9s-4.029-9-9-9-9 4.029-9 9zm0 0c3.038 0 5.5-2.462 5.5-5.5m0 0v-3.5c0-1.933 1.567-3.5 3.5-3.5s3.5 1.567 3.5 3.5-1.567 3.5-3.5 3.5z" stroke="#000" stroke-width="2"/><path d="m208.6 323c0 1.963 1.497 3.5 3.4 3.5h1v5.6h-1c-1.234 0-2.364-.247-3.4-.688v3.738c0 3.783-3.067 6.85-6.85 6.85s-6.85-3.067-6.85-6.85 3.067-6.85 6.85-6.85c.426 0 .844.04 1.25.115v-6.415h5.6zm-3.6 6v6h-.004c.002.05.004.1.004.15-.001 1.795-1.456 3.25-3.25 3.25-1.795 0-3.25-1.455-3.25-3.25 0-1.794 1.455-3.249 3.25-3.25.084 0 .168.004.25.01v-1.604c-.083-.005-.166-.006-.25-.006-2.679 0-4.85 2.172-4.85 4.85 0 2.679 2.171 4.85 4.85 4.85 2.678 0 4.85-2.171 4.85-4.85v-7.287l1.556 1.042c.869.582 1.806.97 2.844 1.122v-1.621c-2.233-.413-3.917-2.186-4.311-4.406h-1.689zm-3.25 4.9c-.691.001-1.25.56-1.25 1.25s.559 1.25 1.25 1.25c.69 0 1.249-.559 1.25-1.25 0-.69-.56-1.25-1.25-1.25z" fill="#000"/><path d="m265 332.5-2.5 2.5 2.5 2.5 2.5-2.5z" fill="#000"/><path d="m271 322.5c-3.428 0-6.236 2.653-6.482 6.018-3.365.246-6.018 3.054-6.018 6.482 0 3.59 2.91 6.5 6.5 6.5 3.428 0 6.236-2.653 6.482-6.018 3.365-.246 6.018-3.054 6.018-6.482 0-3.59-2.91-6.5-6.5-6.5zm.323 10.989c-.565-2.376-2.436-4.247-4.812-4.812.166-2.335 2.112-4.177 4.489-4.177 2.485 0 4.5 2.015 4.5 4.5 0 2.377-1.842 4.323-4.177 4.489zm-1.823 1.511c0 2.485-2.015 4.5-4.5 4.5s-4.5-2.015-4.5-4.5 2.015-4.5 4.5-4.5 4.5 2.015 4.5 4.5z" fill="#000"/><path d="m259 327c0-2.209 1.791-4 4-4h1.5v2h-1.5c-1.105 0-2 .895-2 2v1.5h-2z" fill="#000"/><path d="m275 337v-1.5h2v1.5c0 2.209-1.791 4-4 4h-1.5v-2h1.5c1.105 0 2-.895 2-2z" fill="#000"/></svg>