<svg width="68" height="78" viewBox="0 0 68 78" fill="none" xmlns="http://www.w3.org/2000/svg">
<path d="M31.2342 34.6554L24.0382 40.0609C20.2096 42.9368 14.913 42.8305 11.2029 39.8032C7.92669 37.1299 6.59271 32.7407 7.82729 28.6966L10.4551 20.0886C12.1786 14.4427 17.4067 10.5999 23.3098 10.64C36.0835 10.7269 41.4477 26.9833 31.2342 34.6554Z" fill="white"/>
<path d="M36.7047 42.4945L43.844 37.0144C47.6424 34.0986 52.9399 34.1498 56.6813 37.1383C59.9852 39.7773 61.3648 44.1524 60.1724 48.2092L57.6345 56.844C55.9698 62.5076 50.782 66.4047 44.8789 66.426C32.1049 66.4722 26.5717 50.2726 36.7047 42.4945Z" fill="#2D6BDF"/>
</svg>
