<svg width="29" height="32" viewBox="0 0 29 32" fill="none" xmlns="http://www.w3.org/2000/svg">
<path d="M12.9047 14.3182L9.93159 16.5515C8.34975 17.7398 6.1614 17.6958 4.62853 16.445C3.27495 15.3406 2.7238 13.5271 3.23388 11.8562L4.31957 8.29979C5.03168 5.96711 7.19172 4.37941 9.63062 4.39601C14.9082 4.43192 17.1245 11.1484 12.9047 14.3182Z" fill="#212121"/>
<path d="M15.1651 17.5571L18.1148 15.2929C19.6841 14.0882 21.8728 14.1094 23.4186 15.3441C24.7837 16.4344 25.3537 18.242 24.861 19.9181L23.8124 23.4857C23.1247 25.8257 20.9813 27.4358 18.5424 27.4446C13.2647 27.4637 10.9785 20.7707 15.1651 17.5571Z" fill="#2D6BDF"/>
</svg>
