<svg width="34" height="34" viewBox="0 0 34 34" fill="none" xmlns="http://www.w3.org/2000/svg">
<rect width="34" height="34" rx="17" fill="white"/>
<path d="M25.1521 12.78C25.8038 13.1164 26.0595 13.9174 25.7231 14.5691C25.1915 15.599 24.5359 16.5571 23.6221 17.2721C22.6835 18.0065 21.5552 18.4203 20.1981 18.4879C19.1811 18.5385 18.2045 18.3614 17.3725 18.1987C16.4918 18.0264 15.7803 17.873 15.0684 17.8465C13.9677 17.8056 12.8862 18.345 12.1985 19.2719C11.6442 20.019 11.3671 20.8962 10.886 22.0767C10.6092 22.756 9.83417 23.0822 9.15489 22.8054C8.47569 22.5287 8.14932 21.7538 8.42602 21.0745C8.79978 20.1573 9.24909 18.7888 10.0652 17.6889C11.2403 16.1051 13.1352 15.1167 15.1672 15.1923C16.1376 15.2284 17.0953 15.4378 17.8822 15.5917C18.7178 15.7551 19.4073 15.8676 20.0659 15.8348C20.9251 15.792 21.5158 15.5475 21.9852 15.1801C22.4795 14.7934 22.9213 14.206 23.3627 13.3509C23.6991 12.6991 24.5003 12.4435 25.1521 12.78Z" fill="#DF2E2E"/>
</svg>
