<svg width="39" height="26" viewBox="0 0 39 26" fill="none" xmlns="http://www.w3.org/2000/svg">
<path d="M28 17.5001C28 19.9854 25.368 22.0001 19.5 22.0001C13.632 22.0001 11 19.9853 11 17.5001C11 15.0148 13.632 13.0001 19.5 13.0001C25.368 13.0001 28 15.0148 28 17.5001Z" fill="white"/>
<path d="M15.1924 1.78418C17.5715 -0.594785 21.4285 -0.594734 23.8076 1.78418L37.2041 15.1797C41.042 19.0176 38.3231 25.5801 32.8955 25.5801H6.10449C0.676875 25.5801 -2.04103 19.0176 1.79688 15.1797L15.1924 1.78418ZM15.874 14.1211C14.0716 14.1211 13.2627 15.6145 13.2627 17.457C13.2627 19.2996 14.0715 20.793 15.874 20.793C17.6764 20.7929 18.4844 19.2995 18.4844 17.457C18.4843 15.6146 17.6763 14.1212 15.874 14.1211ZM23.417 14.1211C21.6145 14.1211 20.8057 15.6145 20.8057 17.457C20.8057 19.2996 21.6145 20.793 23.417 20.793C25.2192 20.7927 26.0273 19.2994 26.0273 17.457C26.0273 15.6147 25.2191 14.1214 23.417 14.1211Z" fill="#1EB55A"/>
<path d="M33.0725 25.5293H8.26831C13.3052 24.6466 20.8606 23.8163 25.3846 21.3228C30.9706 18.244 33.0764 13.3904 33.7977 11.8943C33.6043 11.6526 36.734 14.431 37.7142 15.9558C39.0197 17.9865 39.5999 19.8722 38.0043 22.6282C36.7278 24.833 34.1846 25.481 33.0725 25.5293Z" fill="url(#paint0_linear_1377_983)" fill-opacity="0.7"/>
<defs>
<linearGradient id="paint0_linear_1377_983" x1="35.8285" y1="25.5294" x2="30.7516" y2="16.391" gradientUnits="userSpaceOnUse">
<stop offset="0.00480769" stop-color="#0A8139" stop-opacity="0.54"/>
<stop offset="0.290719" stop-color="#118E43" stop-opacity="0.6"/>
<stop offset="0.620027" stop-color="#15AD51" stop-opacity="0.46"/>
<stop offset="1" stop-color="#1EB55A" stop-opacity="0.29"/>
</linearGradient>
</defs>
</svg>
